# xmcd
#
# Track frame offsets:
#	150
#	11475
#	26100
#	41700
#	59550
#	73800
#	89925
#	106950
#	122475
#	137400
#	152250
#	163575
#	178200
#	193800
#	211650
#	225900
#	242025
#	259050
#	274575
#	289500
#
# Disc length: 4062 seconds
#
# Revision: 2
# Processed by: cddbd v1.5.2PL0 Copyright (c) Steve Scherf et al.
# Submitted via: audiograbber 1.83.01
#
DISCID=190fdc14
DTITLE=CHT - CHT9907
DYEAR=1999
DGENRE=Karaoke
TTITLE0=Dwight Yoakam - Crazy Little Thing Called Love
TTITLE1=Alabama - God Must Have Spent A Little More Time
TTITLE2=Brooks and Dunn - South Of Santa Fe
TTITLE3=Lonestar - Amazed
TTITLE4=Kenny Rogers - The Greatest
TTITLE5=George Strait - Write This Down
TTITLE6=Kenny Chesney - You Had Me From Hello
TTITLE7=Mark Chesnutt - This Heartache Never Sleeps
TTITLE8=Clay Walker - She's Always Right
TTITLE9=Randy Travis - Stranger In The Mirror
TTITLE10=Dwight Yoakam  - Crazy Little Thing Called Love (vocal)
TTITLE11=Alabama  - God Must Have Spent A Little More Time On You (vocal)
TTITLE12=Brooks and Dunn  - South Of Santa Fe (vocal)
TTITLE13=Lonestar  - Amazed (vocal)
TTITLE14=Rogers, Kenny  - Greatest, The (vocal)
TTITLE15=Strait, George  - Write This Down (vocal)
TTITLE16=Chesney, Kenny  - You Had Me From Hello (vocal)
TTITLE17=Chesnutt, Mark  - This Heartache Never Sleeps  (vocal)
TTITLE18=Walker, Clay  - She's Always Right (vocal)
TTITLE19=Randy Travis - Stranger In The Mirror (vocals)
EXTD=Corrected track name and artist on 11-20
EXTT0=
EXTT1=
EXTT2=
EXTT3=
EXTT4=
EXTT5=
EXTT6=
EXTT7=
EXTT8=
EXTT9=
EXTT10=
EXTT11=
EXTT12=
EXTT13=
EXTT14=
EXTT15=
EXTT16=
EXTT17=
EXTT18=
EXTT19=
PLAYORDER=
